<svg width="182" height="73" viewBox="0 0 182 73" fill="none" xmlns="http://www.w3.org/2000/svg">
<path d="M71.7046 2L68.7069 7.52C68.4708 7.99462 68.129 8.40861 67.7077 8.73C67.3201 8.99819 66.8598 9.14126 66.3886 9.14C65.9974 9.13066 65.6112 9.0493 65.2495 8.9L65.6392 7.67C65.8646 7.74789 66.1004 7.79171 66.3387 7.8C66.5276 7.80006 66.7132 7.75187 66.8782 7.66C67.0615 7.5434 67.2155 7.38597 67.3279 7.2V7.13L64.5701 2H66.3087L68.1673 5.75L70.0658 2H71.7046Z" fill="#333333"/>
<path d="M77.1204 2.3101C77.5565 2.49448 77.9287 2.8034 78.1903 3.19824C78.4519 3.59309 78.5915 4.05634 78.5915 4.5301C78.5915 5.00387 78.4519 5.46712 78.1903 5.86196C77.9287 6.25681 77.5565 6.56573 77.1204 6.7501C76.6117 6.96381 76.0632 7.0661 75.5117 7.05011H74.0929V8.9801H72.4741V2.0301H75.4718C76.0355 1.99619 76.5994 2.09197 77.1204 2.3101ZM76.5209 5.4301C76.6485 5.31995 76.7508 5.1835 76.8207 5.0301C76.8812 4.87413 76.9084 4.70723 76.9006 4.5401C76.9092 4.36968 76.882 4.19934 76.8207 4.0401C76.7535 3.88226 76.6509 3.74199 76.5209 3.63011C76.1993 3.39912 75.8065 3.28933 75.4118 3.3201H74.0929V5.72011H75.4218C75.8103 5.74941 76.1974 5.64729 76.5209 5.4301Z" fill="#333333"/>
<path d="M84.0351 7.48003H80.7576L80.1181 8.98003H78.4795L81.5971 2.03003H83.1958L86.3334 9.03003H84.6346L84.0351 7.48003ZM83.5255 6.25003L82.4164 3.59003L81.2973 6.25003H83.5255Z" fill="#333333"/>
<path d="M93.5476 1.99997V8.99997H91.9588V3.25997H89.5607L89.5107 4.71997C89.4907 5.52815 89.4105 6.33372 89.2709 7.12997C89.1811 7.6468 88.961 8.13214 88.6313 8.53997C88.4708 8.71298 88.2725 8.84646 88.0518 8.92997C87.8333 9.01815 87.5968 9.05245 87.3623 9.02997C87.0929 9.02687 86.8248 8.99332 86.563 8.92997L86.6629 7.55997C86.759 7.57406 86.8566 7.57406 86.9527 7.55997C87.1439 7.56857 87.3317 7.50825 87.4822 7.38997C87.6327 7.27871 87.7418 7.12033 87.792 6.93997C87.9741 6.24086 88.0714 5.52236 88.0818 4.79997L88.1717 1.96997L93.5476 1.99997Z" fill="#333333"/>
<path d="M100.662 4.85003C100.901 5.06012 101.086 5.32409 101.202 5.62003C101.322 5.90753 101.373 6.21915 101.352 6.53003C101.374 6.87113 101.319 7.21281 101.192 7.53003C101.058 7.84338 100.853 8.12087 100.592 8.34003C99.9846 8.79772 99.2327 9.02134 98.4739 8.97003H95.2964V2.03003H96.9151V4.33003H98.6838C99.3838 4.26585 100.084 4.44991 100.662 4.85003ZM99.4032 7.47003C99.5219 7.35855 99.6141 7.22186 99.673 7.07003C99.738 6.91533 99.7654 6.74739 99.7529 6.58003C99.7529 5.85003 99.3133 5.49003 98.414 5.49003H96.9551V7.78003H98.404C98.5827 7.79699 98.7631 7.77832 98.9346 7.72511C99.1061 7.6719 99.2654 7.58521 99.4032 7.47003Z" fill="#333333"/>
<path d="M103.9 8.62989C103.34 8.34227 102.87 7.90644 102.541 7.36989C102.213 6.80471 102.041 6.16309 102.041 5.50989C102.041 4.85669 102.213 4.21507 102.541 3.64989C102.87 3.11334 103.34 2.67752 103.9 2.38989C104.452 2.10913 105.059 1.95216 105.678 1.92989C106.301 1.90079 106.922 2.01008 107.497 2.24989C107.973 2.45068 108.395 2.76271 108.726 3.15989L107.727 4.15989C107.513 3.89973 107.243 3.69122 106.937 3.54989C106.6 3.399 106.233 3.32774 105.864 3.34161C105.495 3.35548 105.134 3.45412 104.809 3.62989C104.472 3.81131 104.195 4.08548 104.009 4.41989C103.827 4.77583 103.731 5.16986 103.73 5.56989C103.731 5.97313 103.827 6.37042 104.009 6.72989C104.195 7.0643 104.472 7.33847 104.809 7.51989C105.164 7.71277 105.564 7.8093 105.968 7.79989C106.314 7.81766 106.658 7.7453 106.967 7.58989C107.274 7.45102 107.545 7.24211 107.757 6.97989L108.756 7.97989C108.415 8.38653 107.979 8.70257 107.487 8.89989C106.965 9.11992 106.404 9.2289 105.838 9.21989C105.152 9.19312 104.484 8.98992 103.9 8.62989Z" fill="#333333"/>
<path d="M112.503 6.17003H111.394V8.98003H109.785V2.03003H111.394V4.85003H112.553L114.392 2.04003H116.11L113.822 5.40003L116.18 9.01003H114.342L112.503 6.17003Z" fill="#333333"/>
<path d="M116.92 2H118.528V6.54L121.866 2H123.365V9H121.796V4.45L118.449 8.99H116.92V2Z" fill="#333333"/>
<path d="M89.271 13.9299H90.8797V18.4799L94.2172 13.9299H95.746V20.9299H94.1372V16.3499L90.7998 20.8499H89.271V13.9299Z" fill="#333333"/>
<path d="M125.133 2H126.742V6.54L130.079 2H131.608V9H130V4.45L126.662 8.99H125.133V2ZM126.392 0H127.511C127.511 0.49 127.801 0.73 128.341 0.73C128.567 0.749475 128.792 0.681492 128.97 0.540001C129.047 0.471972 129.105 0.386085 129.14 0.290001C129.165 0.194894 129.165 0.0951071 129.14 0H130.259C130.269 0.216483 130.228 0.432226 130.139 0.630001C130.056 0.828033 129.925 1.00296 129.76 1.14C129.335 1.42943 128.823 1.56361 128.311 1.52C127.032 1.52 126.382 1.02 126.372 0H126.392Z" fill="#333333"/>
<path d="M71.7645 13.9301V20.9301H70.1558V15.2001H66.9783V20.8501H65.4294V13.8501L71.7645 13.9301Z" fill="#333333"/>
<path d="M74.8822 20.5899C74.4546 20.3613 74.0781 20.0478 73.7756 19.6686C73.4731 19.2894 73.251 18.8526 73.1229 18.3846C72.9948 17.9167 72.9633 17.4275 73.0304 16.947C73.0976 16.4665 73.2618 16.0048 73.5132 15.5899C73.8419 15.0392 74.3154 14.5895 74.8822 14.2899C75.4906 13.9807 76.1634 13.8196 76.8457 13.8196C77.5281 13.8196 78.2008 13.9807 78.8092 14.2899C79.3741 14.592 79.8471 15.0411 80.1781 15.5899C80.5166 16.143 80.69 16.7814 80.6777 17.4299C80.6886 18.0814 80.5154 18.7226 80.1781 19.2799C79.8403 19.8155 79.3684 20.2533 78.8092 20.5499C78.1932 20.8716 77.5052 21.0299 76.8107 21.0099C76.1436 21.0265 75.4821 20.8824 74.8822 20.5899ZM77.9699 19.3899C78.2989 19.2055 78.5691 18.9316 78.7492 18.5999C78.939 18.2446 79.0384 17.8478 79.0384 17.4449C79.0384 17.042 78.939 16.6453 78.7492 16.2899C78.5691 15.9582 78.2989 15.6844 77.9699 15.4999C77.6236 15.316 77.2377 15.2199 76.8457 15.2199C76.4538 15.2199 76.0678 15.316 75.7216 15.4999C75.3925 15.6844 75.1223 15.9582 74.9422 16.2899C74.7524 16.6453 74.6531 17.042 74.6531 17.4449C74.6531 17.8478 74.7524 18.2446 74.9422 18.5999C75.1223 18.9316 75.3925 19.2055 75.7216 19.3899C76.0659 19.5799 76.4526 19.6795 76.8457 19.6795C77.2389 19.6795 77.6256 19.5799 77.9699 19.3899Z" fill="#333333"/>
<path d="M87.9621 13.9301V20.9301H86.4132V15.2001H84.0151V16.6601C84.005 17.4656 83.9248 18.2686 83.7752 19.0601C83.6957 19.5782 83.4782 20.0652 83.1457 20.4701C82.9852 20.6431 82.7869 20.7766 82.5662 20.8601C82.347 20.9459 82.1117 20.9835 81.8767 20.9701C81.6037 20.963 81.3324 20.9261 81.0674 20.8601L81.1673 19.4901C81.2666 19.5052 81.3677 19.5052 81.4671 19.4901C81.8468 19.4901 82.0965 19.2601 82.2764 18.8101C82.4638 18.1123 82.5579 17.3927 82.5562 16.6701L82.6861 13.8901L87.9621 13.9301Z" fill="#333333"/>
<path d="M102.991 15.2699H100.752V20.9599H99.1536V15.2699H96.9253V13.9299H102.991V15.2699Z" fill="#333333"/>
<path d="M109.445 19.6201V20.8501H104.02V13.8501H109.305V15.1201H105.598V16.6301H108.856V17.9001H105.598V19.5401L109.445 19.6201Z" fill="#333333"/>
<path d="M111.943 13.9299L113.392 16.0499L114.831 13.9299H116.74L114.392 17.2799L116.93 20.9099H115.021L113.392 18.5999L111.784 20.9099H109.875L112.393 17.3499L110.025 13.9299H111.943Z" fill="#333333"/>
<path d="M124.104 13.9301V20.9301H122.485V18.0301H119.308V20.8501H117.659V13.8501H119.308V16.6001H122.475V13.9301H124.104Z" fill="#333333"/>
<path d="M125.863 13.9299H127.461V18.4799L130.809 13.9299H132.378V20.9299H130.779V16.3499L127.381 20.8499H125.853L125.863 13.9299Z" fill="#333333"/>
<path d="M139.622 13.9299V20.9299H138.023V18.3599C137.482 18.5602 136.911 18.6684 136.335 18.6799C135.553 18.7401 134.778 18.5006 134.166 18.0099C133.906 17.7607 133.705 17.4567 133.577 17.1199C133.449 16.7855 133.394 16.4273 133.417 16.0699V13.9299H135.016V15.9299C135.003 16.1267 135.03 16.324 135.096 16.5099C135.193 16.7975 135.389 17.0414 135.648 17.1987C135.908 17.356 136.215 17.4166 136.514 17.3699C137.034 17.3771 137.549 17.2714 138.023 17.0599V13.9099L139.622 13.9299Z" fill="#333333"/>
<path d="M146.776 19.6201V20.8501H141.371V13.8501H146.667V15.1201H142.979V16.6301H146.217V17.9001H142.979V19.5401L146.776 19.6201Z" fill="#333333"/>
<path d="M149.454 20.59C148.89 20.3056 148.416 19.8692 148.086 19.33C147.765 18.7625 147.597 18.1218 147.597 17.47C147.597 16.8181 147.765 16.1774 148.086 15.61C148.419 15.073 148.892 14.6374 149.454 14.35C150.007 14.0683 150.614 13.9113 151.233 13.89C151.851 13.8618 152.468 13.9675 153.042 14.2C153.518 14.4056 153.939 14.7208 154.271 15.12L153.272 16.07C153.057 15.8134 152.787 15.6084 152.482 15.47C152.169 15.3255 151.828 15.2537 151.483 15.26C151.079 15.2528 150.68 15.3492 150.324 15.54C149.993 15.7259 149.72 15.9992 149.535 16.33C149.344 16.6868 149.244 17.0853 149.244 17.49C149.244 17.8946 149.344 18.2931 149.535 18.65C149.715 18.9851 149.989 19.2598 150.324 19.44C150.68 19.6307 151.079 19.7271 151.483 19.72C151.828 19.7338 152.172 19.6616 152.482 19.51C152.785 19.3682 153.051 19.1597 153.262 18.9L154.261 19.9C153.922 20.3115 153.486 20.6313 152.992 20.83C152.471 21.0523 151.909 21.1614 151.343 21.15C150.676 21.1265 150.026 20.9338 149.454 20.59Z" fill="#333333"/>
<path d="M158.048 18.12H156.929V20.93H155.36V13.98H156.979V16.85H158.138L159.976 14.02H161.685L159.357 17.35L161.715 20.96H159.876L158.048 18.12Z" fill="#333333"/>
<path d="M162.464 13.9299H164.083V18.4799L167.42 13.9299H168.939V20.9299H167.351V16.3499L163.993 20.8499H162.464V13.9299Z" fill="#333333"/>
<path d="M170.678 13.9299H172.287V18.4799L175.634 13.9299H177.153V20.9299H175.554V16.3499L172.217 20.8499H170.678V13.9299ZM171.947 11.9299H173.056C173.056 12.4199 173.346 12.6599 173.886 12.6599C173.999 12.672 174.114 12.6614 174.224 12.6288C174.334 12.5962 174.436 12.5422 174.525 12.4699C174.596 12.401 174.653 12.3196 174.695 12.2299C174.731 12.1341 174.748 12.0322 174.745 11.9299H175.854C175.863 12.1454 175.826 12.3603 175.744 12.5599C175.653 12.7564 175.52 12.9305 175.354 13.0699C174.932 13.3579 174.424 13.492 173.915 13.4499C172.636 13.4499 171.987 12.9699 171.917 11.9599L171.947 11.9299Z" fill="#333333"/>
<path d="M68.0872 30.0899H66.9781V32.8499H65.3594V25.9399H66.9781V28.7599H68.1371L69.9758 25.9399H71.6844L69.4262 29.2999L71.7843 32.9099H69.9458L68.0872 30.0899Z" fill="#333333"/>
<path d="M73.8828 32.5399C73.318 32.256 72.8438 31.8195 72.5139 31.2799C72.1864 30.7185 72.0139 30.08 72.0139 29.4299C72.0139 28.7798 72.1864 28.1414 72.5139 27.5799C72.8466 27.0427 73.3201 26.6069 73.8828 26.3199C74.4912 26.0108 75.164 25.8496 75.8464 25.8496C76.5288 25.8496 77.2014 26.0108 77.8098 26.3199C78.3744 26.6043 78.8485 27.0407 79.1788 27.5799C79.5062 28.1414 79.6788 28.7798 79.6788 29.4299C79.6788 30.08 79.5062 30.7185 79.1788 31.2799C78.8514 31.8216 78.3766 32.2587 77.8098 32.5399C77.197 32.8707 76.5074 33.0329 75.8114 33.0099C75.1397 33.0142 74.4773 32.8528 73.8828 32.5399ZM76.9705 31.3599C77.2987 31.1698 77.5682 30.8931 77.7498 30.5599C77.9396 30.2046 78.039 29.8079 78.039 29.4049C78.039 29.002 77.9396 28.6053 77.7498 28.2499C77.5697 27.9183 77.2996 27.6444 76.9705 27.4599C76.6281 27.2698 76.243 27.17 75.8514 27.1699C75.4568 27.1714 75.0688 27.271 74.7223 27.4599C74.399 27.6519 74.1305 27.924 73.9428 28.2499C73.7588 28.6071 73.6628 29.0031 73.6628 29.4049C73.6628 29.8068 73.7588 30.2028 73.9428 30.5599C74.1302 30.8887 74.3986 31.1641 74.7223 31.3599C75.0678 31.5503 75.4571 31.6469 75.8514 31.6399C76.2351 31.6375 76.6124 31.5414 76.9505 31.3599H76.9705Z" fill="#333333"/>
<path d="M86.953 25.9401V32.8501H85.3443V27.2001H82.9461V28.6601C82.9359 29.4688 82.8556 30.2752 82.7063 31.0701C82.623 31.587 82.406 32.0731 82.0768 32.4801C81.9119 32.648 81.7147 32.7807 81.4971 32.8701C81.2785 32.9575 81.0422 32.9918 80.8077 32.9701C80.5376 32.9686 80.2688 32.9316 80.0083 32.8601L80.0983 31.4901C80.194 31.5092 80.2924 31.5092 80.388 31.4901C80.5832 31.4912 80.7719 31.42 80.9176 31.2901C81.0669 31.1686 81.1694 30.9989 81.2074 30.8101C81.3907 30.108 81.4846 29.3857 81.4871 28.6601L81.5872 25.8401L86.953 25.9401Z" fill="#333333"/>
<path d="M94.8965 25.9401V32.8501H93.2877V27.2001H90.8896V28.6601C90.8793 29.4688 90.7991 30.2752 90.6498 31.0701C90.5668 31.589 90.3459 32.076 90.0102 32.4801C89.8508 32.6498 89.6565 32.7828 89.4407 32.8701C89.2188 32.9584 88.979 32.9926 88.7412 32.9701C88.4711 32.9679 88.2025 32.9309 87.9419 32.8601L88.0418 31.4901C88.1374 31.51 88.236 31.51 88.3316 31.4901C88.5268 31.4912 88.7154 31.42 88.8611 31.2901C89.0108 31.1705 89.1106 30.9994 89.1409 30.8101C89.3323 30.1094 89.4298 29.3864 89.4307 28.6601L89.5306 25.8401L94.8965 25.9401Z" fill="#333333"/>
<path d="M102.061 31.6299V32.8499H96.6453V25.9399H101.931V27.1999H98.254V28.7099H101.501V29.9799H98.254V31.6299H102.061Z" fill="#333333"/>
<path d="M110.594 31.58V34.34H109.096V32.85H104.159V34.3H102.651V31.58H102.93C103.35 31.58 103.65 31.26 103.82 30.66C104.021 29.8314 104.129 28.9827 104.139 28.13L104.219 25.95H109.605V31.64L110.594 31.58ZM105.399 30.31C105.338 30.7661 105.17 31.2013 104.909 31.58H108.036V27.24H105.618V28.24C105.606 28.9469 105.542 29.6521 105.429 30.35L105.399 30.31Z" fill="#333333"/>
<path d="M118.039 30.0899H117.04V32.8499H115.391V30.0499H114.392L112.813 32.8499H110.954L113.053 29.2099L111.054 25.8999H112.773L114.342 28.7199H115.391V25.9399H116.98V28.7599H117.979L119.558 25.9399H121.386L119.388 29.2599L121.466 32.8899H119.558L118.039 30.0899Z" fill="#333333"/>
<path d="M71.8744 39.5V46.45H71.165V40.85L68.4271 45.56H68.0674L65.3195 40.9V46.45H64.6101V39.5H65.2495L68.2472 44.67L71.2449 39.5H71.8744Z" fill="#333333"/>
<path d="M79.189 45.85V46.48H74.1929V39.48H78.9991V40.11H74.9323V42.59H78.5595V43.22H74.9323V45.85H79.189Z" fill="#333333"/>
<path d="M86.4132 43.27H84.9544V46.48H84.2348V43.27H82.776L80.6376 46.48H79.7783L82.1765 42.88L79.9582 39.5H80.7575L82.756 42.66H84.225V39.5H84.9444V42.66H86.4132L88.4117 39.5H89.2111L87.0227 42.85L89.4309 46.45H88.5716L86.4132 43.27Z" fill="#333333"/>
<path d="M95.3363 40.1401C95.6981 40.4763 95.9463 40.9169 96.0466 41.4007C96.1468 41.8845 96.0941 42.3876 95.8958 42.8401C95.7695 43.1442 95.5786 43.4172 95.3363 43.6401C94.7305 44.0939 93.9831 44.3172 93.2278 44.2701H91.3294V46.4801H90.6099V39.5301H93.2278C93.9813 39.4709 94.7306 39.6877 95.3363 40.1401ZM94.7967 43.1401C94.979 42.9865 95.1234 42.7929 95.2187 42.5744C95.314 42.3558 95.3576 42.1182 95.3462 41.8801C95.3661 41.6338 95.3249 41.3865 95.2263 41.1601C95.1282 40.937 94.9814 40.7388 94.7967 40.5801C94.3359 40.2489 93.7738 40.0897 93.208 40.1301H91.3493V43.6101H93.208C93.7829 43.6494 94.3532 43.4828 94.8167 43.1401H94.7967Z" fill="#333333"/>
<path d="M102.561 45.85V46.48H97.5645V39.48H102.401V40.11H98.4038V42.59H102.021V43.22H98.4038V45.85H102.561Z" fill="#333333"/>
<path d="M108.656 40.14H104.919V46.46H104.209V39.46H108.646L108.656 40.14Z" fill="#333333"/>
<path d="M109.925 39.5H110.674V45.28L115.161 39.5H115.83V46.45H115.081V40.68L110.594 46.45H109.965L109.925 39.5Z" fill="#333333"/>
<path d="M119.388 46.07C118.839 45.7811 118.383 45.3447 118.069 44.81C117.757 44.2576 117.592 43.6344 117.589 43C117.592 42.3624 117.757 41.736 118.069 41.18C118.383 40.6453 118.839 40.2089 119.388 39.92C119.969 39.601 120.623 39.439 121.286 39.45C121.951 39.4422 122.607 39.6003 123.195 39.91C123.739 40.2061 124.191 40.6452 124.504 41.18C124.818 41.7331 124.984 42.3586 124.984 42.995C124.984 43.6314 124.818 44.2569 124.504 44.81C124.191 45.3417 123.738 45.7775 123.195 46.07C122.608 46.3783 121.954 46.5394 121.291 46.5394C120.628 46.5394 119.975 46.3783 119.388 46.07ZM122.765 45.53C123.182 45.2926 123.527 44.9471 123.764 44.53C124.021 44.0717 124.155 43.5552 124.155 43.03C124.155 42.5047 124.021 41.9883 123.764 41.53C123.524 41.1155 123.179 40.7708 122.765 40.53C122.301 40.2805 121.783 40.15 121.256 40.15C120.733 40.15 120.218 40.2806 119.757 40.53C119.318 40.7621 118.949 41.1073 118.688 41.53C118.434 41.9889 118.3 42.5051 118.3 43.03C118.3 43.5549 118.434 44.0711 118.688 44.53C118.947 44.9549 119.316 45.3008 119.757 45.53C120.219 45.7763 120.734 45.9035 121.256 45.9C121.782 45.9035 122.301 45.7764 122.765 45.53Z" fill="#333333"/>
<path d="M132.528 39.5V46.45H131.798V43.23H127.382V46.45H126.642V39.5H127.382V42.61H131.758V39.5H132.528Z" fill="#333333"/>
<path d="M139.372 44.6101H135.475L134.636 46.5101H133.867L137.034 39.5601H137.764L140.941 46.5101H140.212L139.372 44.6101ZM139.103 43.9801L137.424 40.2401L135.745 43.9801H139.103Z" fill="#333333"/>
<path d="M147.846 39.5V46.45H147.116V40.13H143.739L143.659 42.47C143.639 43.2483 143.559 44.024 143.419 44.79C143.349 45.2709 143.157 45.7256 142.86 46.11C142.733 46.2527 142.576 46.3654 142.4 46.44C142.224 46.5189 142.032 46.5532 141.84 46.54C141.655 46.5413 141.47 46.5178 141.291 46.47L141.371 45.85C141.48 45.8697 141.591 45.8697 141.7 45.85C141.84 45.8606 141.979 45.8292 142.1 45.76C142.225 45.6992 142.335 45.6102 142.42 45.5C142.639 45.1762 142.783 44.807 142.84 44.42C142.938 43.7772 143.001 43.1296 143.029 42.48L143.119 39.48L147.846 39.5Z" fill="#333333"/>
<path d="M155.03 42.55C155.253 42.7554 155.427 43.0089 155.538 43.2913C155.648 43.5737 155.694 43.8776 155.67 44.18C155.69 44.5006 155.639 44.8217 155.52 45.12C155.398 45.4152 155.21 45.6785 154.97 45.89C154.396 46.3195 153.687 46.5288 152.972 46.48H150.194V39.53H150.923V42.02H153.132C153.808 41.9631 154.481 42.1512 155.03 42.55ZM154.441 45.46C154.616 45.3038 154.753 45.1086 154.84 44.89C154.931 44.6719 154.968 44.4355 154.95 44.2C154.95 43.13 154.321 42.6 152.952 42.6H150.953V45.85H152.952C153.48 45.8908 154.006 45.738 154.431 45.42L154.441 45.46Z" fill="#333333"/>
<path d="M163.164 39.5V46.45H162.434V43.23H158.048V46.45H157.358V39.5H158.098V42.61H162.484V39.5H163.164Z" fill="#333333"/>
<path d="M170.348 42.55C170.57 42.7563 170.741 43.0102 170.85 43.2925C170.96 43.5749 171.003 43.8783 170.978 44.18C170.998 44.5006 170.947 44.8217 170.828 45.12C170.706 45.4151 170.518 45.6785 170.279 45.89C169.704 46.3194 168.995 46.5288 168.28 46.48H165.492V39.53H166.232V42.02H168.43C169.112 41.9618 169.793 42.1498 170.348 42.55ZM169.749 45.46C169.922 45.3016 170.059 45.107 170.149 44.89C170.234 44.6705 170.272 44.4352 170.259 44.2C170.259 43.13 169.619 42.6 168.26 42.6H166.262V45.85H168.26C168.79 45.9044 169.322 45.7659 169.759 45.46H169.749ZM172.207 39.46H172.936V46.45H172.207V39.46Z" fill="#333333"/>
<path d="M175.344 39.5H176.054V45.28L180.54 39.5H181.21V46.45H180.501V40.68L176.024 46.45H175.344V39.5ZM177.083 38.66C176.941 38.5447 176.828 38.3973 176.753 38.23C176.674 38.0682 176.633 37.8902 176.634 37.71H177.193C177.186 37.8307 177.21 37.9512 177.263 38.06C177.316 38.1678 177.391 38.2632 177.483 38.34C177.715 38.4895 177.986 38.5693 178.262 38.57C178.542 38.5695 178.815 38.4898 179.052 38.34C179.146 38.2654 179.221 38.1694 179.271 38.06C179.327 37.9519 179.355 37.8315 179.351 37.71H179.901C179.904 37.8926 179.867 38.0737 179.791 38.24C179.707 38.4011 179.591 38.5439 179.451 38.66C179.094 38.8761 178.685 38.9904 178.267 38.9904C177.85 38.9904 177.44 38.8761 177.083 38.66Z" fill="#333333"/>
<path d="M71.4249 57.8499V60.1199H70.7355V58.4399H64.6201V51.4399H65.3497V57.8499H69.5864V51.4799H70.3158V57.8499H71.4249Z" fill="#333333"/>
<path d="M77.8199 57.85V58.48H72.8237V51.48H77.64V52.11H73.5832V54.59H77.2004V55.23H73.5832V57.85H77.8199Z" fill="#333333"/>
<path d="M85.3042 51.4599V58.4599H84.5848V55.1899H80.2282V58.4099H79.4688V51.4099H80.2282V54.5199H84.6047V51.4599H85.3042Z" fill="#333333"/>
<path d="M92.2787 52.1H89.8006V58.42H89.0712V52.1H86.613V51.47H92.2787V52.1Z" fill="#333333"/>
<path d="M98.2842 52.1C98.5242 52.321 98.7148 52.5902 98.8437 52.89C98.9802 53.2055 99.0484 53.5463 99.0436 53.89C99.05 54.2339 98.9817 54.5751 98.8437 54.89C98.7125 55.1914 98.5222 55.4635 98.2842 55.69C97.6791 56.1377 96.9372 56.3604 96.1858 56.32H94.2773V58.53H93.5479V51.53H96.1658C96.9169 51.465 97.6669 51.6668 98.2842 52.1ZM97.7446 55.1C97.9193 54.9338 98.0585 54.7337 98.1535 54.5119C98.2486 54.2901 98.2977 54.0513 98.2977 53.81C98.2977 53.5687 98.2486 53.3299 98.1535 53.1082C98.0585 52.8864 97.9193 52.6863 97.7446 52.52C97.2876 52.1888 96.7286 52.0295 96.1658 52.07H94.2973V55.56H96.1658C96.7256 55.6005 97.2825 55.4488 97.7446 55.13V55.1Z" fill="#333333"/>
<path d="M66.9082 67.1901H65.3195V70.3901H64.6001V63.3901H65.3195V66.5501H66.9082L69.2664 63.3901H70.0758L67.4779 66.7801L70.2258 70.3701H69.4263L66.9082 67.1901Z" fill="#333333"/>
<path d="M72.5538 69.99C72.0013 69.6878 71.5403 69.2424 71.2191 68.7005C70.8979 68.1585 70.7285 67.5401 70.7285 66.91C70.7285 66.2799 70.8979 65.6615 71.2191 65.1195C71.5403 64.5776 72.0013 64.1322 72.5538 63.83C73.1418 63.5203 73.7978 63.3622 74.4623 63.37C75.1243 63.3559 75.7785 63.5145 76.3608 63.83C76.9069 64.1219 77.3631 64.5576 77.6798 65.09C77.9942 65.645 78.1595 66.272 78.1595 66.91C78.1595 67.548 77.9942 68.175 77.6798 68.73C77.366 69.2647 76.9091 69.7011 76.3608 69.99C75.7785 70.3055 75.1243 70.4641 74.4623 70.45C73.7978 70.4578 73.1418 70.2997 72.5538 69.99ZM75.9412 69.42C76.3785 69.1893 76.7447 68.8435 77.0003 68.42C77.2586 67.9623 77.3944 67.4456 77.3944 66.92C77.3944 66.3944 77.2586 65.8777 77.0003 65.42C76.7447 64.9965 76.3785 64.6507 75.9412 64.42C75.4824 64.1678 74.9656 64.0403 74.4423 64.05C73.916 64.0417 73.3964 64.1692 72.9335 64.42C72.4961 64.6507 72.1298 64.9965 71.8742 65.42C71.6159 65.8777 71.4803 66.3944 71.4803 66.92C71.4803 67.4456 71.6159 67.9623 71.8742 68.42C72.1298 68.8435 72.4961 69.1893 72.9335 69.42C73.3964 69.661 73.9105 69.7869 74.4323 69.7869C74.9541 69.7869 75.4683 69.661 75.9312 69.42H75.9412Z" fill="#333333"/>
<path d="M87.1626 63.4199V70.4199H86.4132V64.7899L83.6553 69.4799H83.3056L80.5977 64.8499V70.3999H79.8882V63.3999H80.5177L83.5654 68.5699L86.5631 63.3999L87.1626 63.4199Z" fill="#333333"/>
<path d="M95.4062 63.4201V70.4201H94.6768V64.0501H90.2302V70.3701H89.5107V63.3701L95.4062 63.4201Z" fill="#333333"/>
<path d="M102.721 69.7501V70.3901H97.7244V63.3901H102.531V64.0301H98.4639V66.5501H102.081V67.1801H98.4639V69.7701L102.721 69.7501Z" fill="#333333"/>
<path d="M108.946 64.0499H106.488V70.3699H105.758V64.0499H103.29V63.4199H108.946V64.0499Z" fill="#333333"/>
<path d="M115.201 69.7501V70.3901H110.205V63.3901H115.011V64.0301H110.944V66.5501H114.571V67.1801H110.944V69.7701L115.201 69.7501Z" fill="#333333"/>
<path d="M122.695 63.4201V70.4201H121.966V67.1501H117.579V70.3701H116.84V63.3701H117.579V66.4701H121.966V63.3701L122.695 63.4201Z" fill="#333333"/>
<path d="M131.848 69.7501V72.0301H131.158V70.3901H125.053V63.3901H125.783V69.7101H130.009V63.4401H130.739V69.7601L131.848 69.7501Z" fill="#333333"/>
<path d="M133.377 63.4199H134.106V69.1999L138.583 63.4199H139.272V70.4199H138.523V64.5999L134.036 70.3699H133.377V63.4199Z" fill="#333333"/>
<path d="M141.561 63.4201H142.3V69.2001L146.777 63.4201H147.416V70.4201H146.687V64.6001L142.21 70.3701H141.561V63.4201ZM143.299 62.5701C143.16 62.456 143.047 62.3126 142.969 62.1501C142.889 61.9854 142.852 61.8032 142.86 61.6201H143.409C143.402 61.7408 143.426 61.8613 143.479 61.9701C143.533 62.08 143.612 62.1759 143.709 62.2501C143.932 62.4184 144.209 62.5001 144.488 62.4801C144.766 62.4903 145.04 62.4095 145.268 62.2501C145.362 62.1755 145.437 62.0796 145.488 61.9701C145.543 61.8621 145.571 61.7417 145.567 61.6201H146.117C146.125 61.8032 146.087 61.9854 146.007 62.1501C145.929 62.3151 145.812 62.4591 145.667 62.5701C145.323 62.8109 144.908 62.9305 144.488 62.9101C144.067 62.941 143.648 62.8282 143.299 62.5901V62.5701Z" fill="#333333"/>
<path d="M51.0704 13.9599H46.9136L51.9097 1.8999H56.0765L51.0704 13.9599Z" fill="#33CCFF"/>
<path d="M56.1166 32.9701H51.9498L46.9536 18.0701H51.1104L56.1166 32.9701Z" fill="#333333"/>
<path d="M16.3473 32.9701V28.8501H0V32.9901L16.3473 32.9701Z" fill="#33CCFF"/>
<path d="M12.1906 1.9001V20.8501H4.19674V1.8501H0.0400391V25.0201H16.3874V1.9001H12.1906Z" fill="#333333"/>
<path d="M0 39.3401V70.4301H4.15682V43.4801H6.09526V70.4301H10.2521V43.4801H12.1905V70.4301H16.3473V39.3401H0Z" fill="#333333"/>
<path d="M37.1513 39.3401H32.9946V64.7701H37.1513V39.3401Z" fill="#333333"/>
<path d="M24.9608 66.2801V39.3401H20.804V70.4201H31.4558V66.2801H24.9608Z" fill="#333333"/>
<path d="M41.7378 32.9699H45.9045V1.8999H41.7378V32.9699Z" fill="#333333"/>
<path d="M51.0704 51.4001H46.9136L51.9097 39.3401H56.0765L51.0704 51.4001Z" fill="#333333"/>
<path d="M56.1166 70.41H51.9498L46.9536 55.5H51.1104L56.1166 70.41Z" fill="#333333"/>
<path d="M41.7378 70.4101H45.9045V39.3401H41.7378V70.4101Z" fill="#333333"/>
<path d="M32.9946 1.8999H20.804V32.9699H24.9608V6.0499H32.9546V32.9699H37.1214V1.8999H32.9946Z" fill="#333333"/>
<path d="M37.1513 66.28H32.9946V70.43H37.1513V66.28Z" fill="#E6362D"/>
</svg>
